<svg width="100" height="20" viewBox="0 0 100 20" fill="none" xmlns="http://www.w3.org/2000/svg">
<path d="M14.8 19H10.984L2.87199 5.56H2.776C2.79199 5.912 2.80799 6.288 2.82399 6.688C2.85599 7.072 2.87999 7.472 2.89599 7.888C2.91199 8.288 2.92799 8.696 2.94399 9.112C2.96 9.528 2.97599 9.944 2.99199 10.36V19H0.231995V1.864H4.02399L12.112 15.208H12.184C12.168 14.888 12.152 14.544 12.136 14.176C12.12 13.792 12.104 13.4 12.088 13C12.088 12.6 12.08 12.192 12.064 11.776C12.048 11.36 12.032 10.96 12.016 10.576V1.864H14.8V19Z" fill="#768194"/>
<path d="M22.7672 5.752C23.9352 5.752 24.9352 5.992 25.7672 6.472C26.6152 6.936 27.2712 7.608 27.7352 8.488C28.1992 9.352 28.4312 10.408 28.4312 11.656V13.192H19.8392C19.8712 14.376 20.1992 15.296 20.8232 15.952C21.4472 16.592 22.3112 16.912 23.4152 16.912C24.2632 16.912 25.0152 16.832 25.6712 16.672C26.3432 16.496 27.0312 16.248 27.7352 15.928V18.352C27.0952 18.656 26.4312 18.88 25.7432 19.024C25.0552 19.168 24.2312 19.24 23.2712 19.24C22.0072 19.24 20.8792 19 19.8872 18.52C18.9112 18.024 18.1432 17.28 17.5832 16.288C17.0392 15.296 16.7672 14.064 16.7672 12.592C16.7672 11.104 17.0152 9.856 17.5112 8.848C18.0232 7.824 18.7272 7.056 19.6232 6.544C20.5192 6.016 21.5672 5.752 22.7672 5.752ZM22.7672 7.984C21.9672 7.984 21.3112 8.248 20.7992 8.776C20.3032 9.288 20.0072 10.056 19.9112 11.08H25.5032C25.5032 10.472 25.3992 9.936 25.1912 9.472C24.9992 9.008 24.7032 8.648 24.3032 8.392C23.9032 8.12 23.3912 7.984 22.7672 7.984Z" fill="#768194"/>
<path d="M35.2966 19.24C34.0646 19.24 32.9926 19.008 32.0806 18.544C31.1846 18.064 30.4886 17.336 29.9926 16.36C29.5126 15.368 29.2726 14.104 29.2726 12.568C29.2726 10.968 29.5366 9.672 30.0646 8.68C30.6086 7.672 31.3526 6.936 32.2966 6.472C33.2406 5.992 34.3206 5.752 35.5366 5.752C36.3526 5.752 37.0806 5.832 37.7206 5.992C38.3606 6.152 38.9046 6.344 39.3526 6.568L38.4646 8.944C37.9686 8.752 37.4726 8.592 36.9766 8.464C36.4806 8.32 36.0006 8.248 35.5366 8.248C34.8166 8.248 34.2166 8.408 33.7366 8.728C33.2726 9.048 32.9286 9.528 32.7046 10.168C32.4806 10.792 32.3686 11.584 32.3686 12.544C32.3686 13.472 32.4806 14.248 32.7046 14.872C32.9446 15.496 33.2966 15.968 33.7606 16.288C34.2246 16.592 34.8006 16.744 35.4886 16.744C36.2246 16.744 36.8726 16.656 37.4326 16.48C37.9926 16.304 38.5206 16.064 39.0166 15.76V18.376C38.5206 18.68 37.9846 18.896 37.4086 19.024C36.8486 19.168 36.1446 19.24 35.2966 19.24Z" fill="#768194"/>
<path d="M43.624 9.424C43.624 9.84 43.608 10.28 43.576 10.744C43.544 11.192 43.512 11.632 43.48 12.064H43.552C43.68 11.872 43.832 11.664 44.008 11.44C44.184 11.2 44.36 10.968 44.536 10.744C44.728 10.504 44.912 10.288 45.088 10.096L48.928 5.992H52.36L47.152 11.608L52.696 19H49.168L45.136 13.432L43.624 14.68V19H40.624V0.760002H43.624V9.424Z" fill="#768194"/>
<path d="M60.8774 4.216C60.0934 4.216 59.3974 4.36 58.7894 4.648C58.1814 4.936 57.6614 5.352 57.2294 5.896C56.8134 6.44 56.4934 7.096 56.2694 7.864C56.0614 8.632 55.9574 9.496 55.9574 10.456C55.9574 11.752 56.1334 12.864 56.4854 13.792C56.8374 14.704 57.3734 15.408 58.0934 15.904C58.8294 16.4 59.7494 16.648 60.8534 16.648C61.5894 16.648 62.2934 16.576 62.9654 16.432C63.6534 16.272 64.3734 16.064 65.1254 15.808V18.424C64.4214 18.712 63.7094 18.92 62.9894 19.048C62.2854 19.176 61.4694 19.24 60.5414 19.24C58.7814 19.24 57.3254 18.88 56.1734 18.16C55.0214 17.424 54.1654 16.4 53.6054 15.088C53.0454 13.76 52.7654 12.208 52.7654 10.432C52.7654 9.136 52.9414 7.952 53.2934 6.88C53.6614 5.808 54.1814 4.88 54.8534 4.096C55.5414 3.312 56.3894 2.704 57.3974 2.272C58.4054 1.84 59.5654 1.624 60.8774 1.624C61.7414 1.624 62.5894 1.728 63.4214 1.936C64.2694 2.128 65.0614 2.4 65.7974 2.752L64.7414 5.272C64.1334 5 63.5014 4.76 62.8454 4.552C62.2054 4.328 61.5494 4.216 60.8774 4.216Z" fill="#030C1C"/>
<path d="M72.2718 5.752C73.9518 5.752 75.2237 6.12 76.0877 6.856C76.9677 7.576 77.4077 8.712 77.4077 10.264V19H75.2718L74.6717 17.2H74.5757C74.2077 17.664 73.8238 18.056 73.4238 18.376C73.0398 18.68 72.5918 18.896 72.0798 19.024C71.5838 19.168 70.9757 19.24 70.2557 19.24C69.4877 19.24 68.7917 19.096 68.1677 18.808C67.5597 18.52 67.0797 18.08 66.7277 17.488C66.3757 16.88 66.1997 16.12 66.1997 15.208C66.1997 13.864 66.6877 12.856 67.6637 12.184C68.6557 11.496 70.1517 11.12 72.1517 11.056L74.4077 10.984V10.336C74.4077 9.504 74.2077 8.912 73.8077 8.56C73.4077 8.208 72.8477 8.032 72.1277 8.032C71.4717 8.032 70.8398 8.128 70.2318 8.32C69.6238 8.512 69.0317 8.736 68.4557 8.992L67.4958 6.88C68.1358 6.544 68.8637 6.272 69.6797 6.064C70.5117 5.856 71.3758 5.752 72.2718 5.752ZM72.8237 12.904C71.4957 12.952 70.5758 13.184 70.0638 13.6C69.5518 14 69.2957 14.544 69.2957 15.232C69.2957 15.84 69.4797 16.28 69.8477 16.552C70.2157 16.824 70.6877 16.96 71.2637 16.96C72.1437 16.96 72.8878 16.712 73.4958 16.216C74.1038 15.704 74.4077 14.952 74.4077 13.96V12.856L72.8237 12.904Z" fill="#030C1C"/>
<path d="M86.5731 5.752C86.7651 5.752 86.9891 5.76 87.2451 5.776C87.5011 5.792 87.7171 5.824 87.8931 5.872L87.6291 8.68C87.4851 8.648 87.2931 8.624 87.0531 8.608C86.8291 8.576 86.6291 8.56 86.4531 8.56C85.9731 8.56 85.5091 8.64 85.0611 8.8C84.6291 8.944 84.2371 9.168 83.8851 9.472C83.5491 9.76 83.2771 10.136 83.0691 10.6C82.8771 11.064 82.7811 11.616 82.7811 12.256V19H79.7571V5.992H82.0851L82.5171 8.248H82.6611C82.9171 7.784 83.2371 7.368 83.6211 7C84.0051 6.616 84.4451 6.312 84.9411 6.088C85.4531 5.864 85.9971 5.752 86.5731 5.752Z" fill="#030C1C"/>
<path d="M93.6272 5.752C94.7952 5.752 95.7952 5.992 96.6272 6.472C97.4752 6.936 98.1312 7.608 98.5952 8.488C99.0592 9.352 99.2912 10.408 99.2912 11.656V13.192H90.6992C90.7312 14.376 91.0592 15.296 91.6832 15.952C92.3072 16.592 93.1712 16.912 94.2752 16.912C95.1232 16.912 95.8752 16.832 96.5312 16.672C97.2032 16.496 97.8912 16.248 98.5952 15.928V18.352C97.9552 18.656 97.2912 18.88 96.6032 19.024C95.9152 19.168 95.0912 19.24 94.1312 19.24C92.8672 19.24 91.7392 19 90.7472 18.52C89.7712 18.024 89.0032 17.28 88.4432 16.288C87.8992 15.296 87.6272 14.064 87.6272 12.592C87.6272 11.104 87.8752 9.856 88.3712 8.848C88.8832 7.824 89.5872 7.056 90.4832 6.544C91.3792 6.016 92.4272 5.752 93.6272 5.752ZM93.6272 7.984C92.8272 7.984 92.1712 8.248 91.6592 8.776C91.1632 9.288 90.8672 10.056 90.7712 11.08H96.3632C96.3632 10.472 96.2592 9.936 96.0512 9.472C95.8592 9.008 95.5632 8.648 95.1632 8.392C94.7632 8.12 94.2512 7.984 93.6272 7.984Z" fill="#030C1C"/>
</svg>
